<svg width="136" height="32" viewBox="0 0 136 32" fill="none" xmlns="http://www.w3.org/2000/svg">
<g clip-path="url(#clip0_301_69)">
<path d="M10.7262 6.86165C9.07981 6.86165 8.71395 7.5868 8.71395 9.03709V11.5751H12.9213L12.5554 15.7447H8.71395V28.2535H3.592V15.7447H0.116394V11.5751H3.592V9.03709C3.592 4.8675 5.23835 2.69206 9.99444 2.69206H12.9213V6.49908L10.7262 6.86165ZM13.2871 19.3704C13.2871 14.657 15.4822 11.2125 20.2383 11.2125C22.7993 11.2125 24.2627 12.4815 24.9944 14.1131V11.5751H29.9335V28.2535H24.9944V25.7155C24.2627 27.347 22.6164 28.616 20.2383 28.616C15.4822 28.616 13.2871 25.1716 13.2871 20.4581V19.3704ZM18.4091 20.4581C18.4091 22.9962 19.3237 24.6277 21.7018 24.6277C24.0798 24.6277 24.8115 23.1774 24.8115 20.8207V19.1891C24.8115 16.8324 23.714 15.3821 21.7018 15.3821C19.6896 15.3821 18.4091 17.0137 18.4091 19.5517V20.4581ZM40.5432 11.2125C42.5554 11.2125 44.3847 11.5751 45.4823 12.3002L44.3847 15.926C43.2951 15.4308 42.1076 15.183 40.9091 15.2008C38.1652 15.2008 36.8847 16.8324 36.8847 19.5517V20.4581C36.8847 23.1774 38.1652 24.809 40.9091 24.809C42.1076 24.8268 43.2951 24.5791 44.3847 24.0839L45.4823 27.7096C44.3847 28.4348 42.5554 28.7973 40.5432 28.7973C34.5066 28.7973 31.7627 25.5342 31.7627 20.4581V19.733C31.7627 14.4757 34.5066 11.2125 40.5432 11.2125ZM46.031 20.6394V19.1891C46.031 14.4757 48.7749 11.3938 54.2627 11.3938C59.7505 11.3938 61.7627 14.4757 61.7627 19.1891V21.9084H51.153C51.3359 24.2652 52.2505 25.1716 55.1774 25.1716C58.1042 25.1716 59.0188 24.809 60.6652 24.0839L61.5798 27.5283C60.2993 28.2535 57.5554 28.7973 54.9944 28.7973C48.4091 28.616 46.031 25.5342 46.031 20.6394ZM51.153 18.464H57.3725V18.1014C57.3725 16.2886 56.6408 14.8383 54.4457 14.8383C52.2505 14.8383 51.153 16.1073 51.153 18.464ZM80.6042 20.4581C80.6042 25.1716 78.4091 28.616 73.653 28.616C71.092 28.616 69.2627 27.347 68.714 25.7155V28.2535H63.9579V3.23592L69.0798 2.69206V13.7505C69.8115 12.3002 71.4579 11.0312 73.8359 11.0312C78.592 11.0312 80.7871 14.4757 80.7871 19.1891L80.6042 20.4581ZM75.4822 19.3704C75.4822 17.0137 74.5676 15.2008 72.1896 15.2008C69.8115 15.2008 68.8969 16.6511 68.8969 19.0079V20.8207C68.8969 23.1774 69.9944 24.6277 72.1896 24.6277C74.3847 24.6277 75.4822 22.8149 75.4822 20.4581V19.3704ZM82.4335 20.2769V19.3704C82.4335 14.657 85.1774 11.0312 90.8481 11.0312C96.5188 11.0312 99.2627 14.4757 99.2627 19.3704V20.2769C99.2627 24.9903 96.5188 28.616 90.8481 28.616C85.1774 28.616 82.4335 25.1716 82.4335 20.2769ZM94.1408 19.0079C94.1408 16.8324 93.2262 15.0195 90.8481 15.0195C88.4701 15.0195 87.5554 16.8324 87.5554 19.0079V20.6394C87.5554 22.8149 88.4701 24.6277 90.8481 24.6277C93.2262 24.6277 94.1408 22.8149 94.1408 20.6394V19.0079ZM100.726 20.2769V19.3704C100.726 14.657 103.47 11.0312 109.141 11.0312C114.812 11.0312 117.555 14.4757 117.555 19.3704V20.2769C117.555 24.9903 114.812 28.616 109.141 28.616C103.47 28.616 100.726 25.1716 100.726 20.2769ZM112.433 19.0079C112.433 16.8324 111.519 15.0195 109.141 15.0195C106.763 15.0195 105.848 16.8324 105.848 19.0079V20.6394C105.848 22.8149 106.763 24.6277 109.141 24.6277C111.519 24.6277 112.433 22.8149 112.433 20.6394V19.0079ZM124.507 19.5517L129.446 11.5751H134.933L129.629 19.733L135.116 28.2535H129.812L124.507 20.0956V28.2535H119.385V3.23592L124.507 2.69206V19.5517Z" fill="#9CB0C9"/>
</g>
<defs>
<clipPath id="clip0_301_69">
<rect width="135" height="31" fill="white" transform="translate(0.116394 0.154053)"/>
</clipPath>
</defs>
</svg>
