<svg width="121" height="40" viewBox="0 0 121 40" fill="none" xmlns="http://www.w3.org/2000/svg">
<path d="M30.3971 13.8811H16.3863V18.0324H26.3106C25.8241 23.8703 20.9593 26.3351 16.3863 26.3351C10.516 26.3351 5.42415 21.7297 5.42415 15.2757C5.42415 8.98379 10.289 4.15135 16.3863 4.15135C21.089 4.15135 23.8782 7.16757 23.8782 7.16757L26.7971 4.15135C26.7971 4.15135 23.0674 0 16.2566 0C7.59712 0 0.883606 7.32973 0.883606 15.2108C0.883606 22.9622 7.20793 30.5189 16.4836 30.5189C24.6566 30.5189 30.6241 24.9081 30.6241 16.6378C30.6241 14.8865 30.3971 13.8811 30.3971 13.8811Z" fill="#9CB0C9"/>
<path d="M41.8453 10.8649C36.1047 10.8649 31.9858 15.373 31.9858 20.5946C31.9858 25.9135 35.975 30.4865 41.9101 30.4865C47.2939 30.4865 51.6723 26.3676 51.6723 20.7243C51.7047 14.2054 46.5804 10.8649 41.8453 10.8649ZM41.9101 14.7243C44.7318 14.7243 47.4236 16.9946 47.4236 20.6919C47.4236 24.2919 44.7642 26.6595 41.9101 26.6595C38.7642 26.6595 36.2993 24.1622 36.2993 20.6919C36.2993 17.2541 38.7318 14.7243 41.9101 14.7243Z" fill="#9CB0C9"/>
<path d="M63.3166 10.8649C57.576 10.8649 53.4571 15.373 53.4571 20.5946C53.4571 25.9135 57.4463 30.4865 63.3814 30.4865C68.7652 30.4865 73.1436 26.3676 73.1436 20.7243C73.1436 14.2054 68.0193 10.8649 63.3166 10.8649ZM63.3814 14.7243C66.203 14.7243 68.8949 16.9946 68.8949 20.6919C68.8949 24.2919 66.2355 26.6595 63.3814 26.6595C60.2355 26.6595 57.7706 24.1622 57.7706 20.6919C57.7382 17.2541 60.203 14.7243 63.3814 14.7243Z" fill="#9CB0C9"/>
<path d="M84.3325 10.8649C79.046 10.8649 74.9271 15.4703 74.9271 20.6595C74.9271 26.5622 79.7271 30.4865 84.2676 30.4865C87.0568 30.4865 88.5487 29.3838 89.6514 28.0865V30.0324C89.6514 33.4054 87.6082 35.4487 84.4947 35.4487C81.5109 35.4487 79.9866 33.2108 79.4676 31.9459L75.7055 33.5351C77.0352 36.3568 79.7271 39.3081 84.5271 39.3081C89.7811 39.3081 93.7703 36 93.7703 29.0919V11.4486H89.6514V13.1027C88.3866 11.773 86.6352 10.8649 84.3325 10.8649ZM84.7217 14.7243C87.3163 14.7243 89.9757 16.9297 89.9757 20.6919C89.9757 24.5189 87.3163 26.627 84.6893 26.627C81.8676 26.627 79.273 24.3568 79.273 20.7243C79.2406 16.9622 81.9649 14.7243 84.7217 14.7243Z" fill="#9CB0C9"/>
<path d="M112.03 10.8649C107.067 10.8649 102.884 14.8216 102.884 20.6595C102.884 26.8541 107.554 30.5189 112.516 30.5189C116.667 30.5189 119.23 28.2487 120.721 26.2054L117.316 23.9351C116.44 25.2973 114.948 26.627 112.516 26.627C109.759 26.627 108.494 25.1027 107.716 23.6432L120.884 18.1946L120.203 16.6054C118.938 13.4595 115.954 10.8649 112.03 10.8649ZM112.224 14.627C114.008 14.627 115.305 15.5676 115.857 16.7351L107.067 20.4C106.678 17.5459 109.37 14.627 112.224 14.627Z" fill="#9CB0C9"/>
<path d="M100.937 1.00591H96.6239V29.9356H100.937V1.00591Z" fill="#9CB0C9"/>
</svg>
