<svg width="122" height="34" viewBox="0 0 122 34" fill="none" xmlns="http://www.w3.org/2000/svg">
<path d="M40 16.2807C40 24.9962 31.0457 12.5 20 12.5C8.9543 12.5 0 24.9962 0 16.2807C0 7.56528 8.9543 0.5 20 0.5C31.0457 0.5 40 7.56528 40 16.2807Z" fill="#CED7E4"/>
<rect x="2" y="21.5" width="36" height="12" rx="6" fill="#CED7E4"/>
<path d="M50.36 23.5V9.5H53.4L57.86 18.38L62.26 9.5H65.3V23.5H62.74V13.84L58.84 21.5H56.82L52.92 13.84V23.5H50.36ZM72.8662 23.74C71.9062 23.74 71.0396 23.52 70.2662 23.08C69.5062 22.64 68.8996 22.0333 68.4462 21.26C68.0062 20.4733 67.7862 19.5667 67.7862 18.54C67.7862 17.5133 68.0129 16.6133 68.4662 15.84C68.9196 15.0533 69.5262 14.44 70.2862 14C71.0596 13.56 71.9262 13.34 72.8863 13.34C73.8329 13.34 74.6863 13.56 75.4462 14C76.2196 14.44 76.8262 15.0533 77.2662 15.84C77.7196 16.6133 77.9463 17.5133 77.9463 18.54C77.9463 19.5667 77.7196 20.4733 77.2662 21.26C76.8262 22.0333 76.2196 22.64 75.4462 23.08C74.6729 23.52 73.8129 23.74 72.8662 23.74ZM72.8662 21.52C73.5329 21.52 74.1129 21.2733 74.6062 20.78C75.0996 20.2733 75.3462 19.5267 75.3462 18.54C75.3462 17.5533 75.0996 16.8133 74.6062 16.32C74.1129 15.8133 73.5396 15.56 72.8863 15.56C72.2063 15.56 71.6196 15.8133 71.1262 16.32C70.6462 16.8133 70.4062 17.5533 70.4062 18.54C70.4062 19.5267 70.6462 20.2733 71.1262 20.78C71.6196 21.2733 72.1996 21.52 72.8662 21.52ZM85.1452 23.74C84.1852 23.74 83.3185 23.52 82.5452 23.08C81.7852 22.64 81.1785 22.0333 80.7252 21.26C80.2852 20.4733 80.0652 19.5667 80.0652 18.54C80.0652 17.5133 80.2918 16.6133 80.7452 15.84C81.1985 15.0533 81.8052 14.44 82.5652 14C83.3385 13.56 84.2052 13.34 85.1652 13.34C86.1118 13.34 86.9652 13.56 87.7252 14C88.4985 14.44 89.1052 15.0533 89.5452 15.84C89.9985 16.6133 90.2252 17.5133 90.2252 18.54C90.2252 19.5667 89.9985 20.4733 89.5452 21.26C89.1052 22.0333 88.4985 22.64 87.7252 23.08C86.9518 23.52 86.0918 23.74 85.1452 23.74ZM85.1452 21.52C85.8118 21.52 86.3918 21.2733 86.8852 20.78C87.3785 20.2733 87.6252 19.5267 87.6252 18.54C87.6252 17.5533 87.3785 16.8133 86.8852 16.32C86.3918 15.8133 85.8185 15.56 85.1652 15.56C84.4852 15.56 83.8985 15.8133 83.4052 16.32C82.9252 16.8133 82.6852 17.5533 82.6852 18.54C82.6852 19.5267 82.9252 20.2733 83.4052 20.78C83.8985 21.2733 84.4785 21.52 85.1452 21.52ZM97.2241 23.74C96.2907 23.74 95.4574 23.5133 94.7241 23.06C93.9907 22.6067 93.4107 21.9867 92.9841 21.2C92.5574 20.4133 92.3441 19.52 92.3441 18.52C92.3441 17.52 92.5574 16.6333 92.9841 15.86C93.4107 15.0733 93.9907 14.46 94.7241 14.02C95.4574 13.5667 96.2907 13.34 97.2241 13.34C97.9707 13.34 98.6241 13.48 99.1841 13.76C99.7441 14.04 100.197 14.4333 100.544 14.94V9.1H103.104V23.5H100.824L100.544 22.08C100.224 22.52 99.7974 22.9067 99.2641 23.24C98.7441 23.5733 98.0641 23.74 97.2241 23.74ZM97.7641 21.5C98.5907 21.5 99.2641 21.2267 99.7841 20.68C100.317 20.12 100.584 19.4067 100.584 18.54C100.584 17.6733 100.317 16.9667 99.7841 16.42C99.2641 15.86 98.5907 15.58 97.7641 15.58C96.9507 15.58 96.2774 15.8533 95.7441 16.4C95.2107 16.9467 94.9441 17.6533 94.9441 18.52C94.9441 19.3867 95.2107 20.1 95.7441 20.66C96.2774 21.22 96.9507 21.5 97.7641 21.5ZM109.281 23.74C108.428 23.74 107.728 23.6067 107.181 23.34C106.634 23.06 106.228 22.6933 105.961 22.24C105.694 21.7867 105.561 21.2867 105.561 20.74C105.561 19.82 105.921 19.0733 106.641 18.5C107.361 17.9267 108.441 17.64 109.881 17.64H112.401V17.4C112.401 16.72 112.208 16.22 111.821 15.9C111.434 15.58 110.954 15.42 110.381 15.42C109.861 15.42 109.408 15.5467 109.021 15.8C108.634 16.04 108.394 16.4 108.301 16.88H105.801C105.868 16.16 106.108 15.5333 106.521 15C106.948 14.4667 107.494 14.06 108.161 13.78C108.828 13.4867 109.574 13.34 110.401 13.34C111.814 13.34 112.928 13.6933 113.741 14.4C114.554 15.1067 114.961 16.1067 114.961 17.4V23.5H112.781L112.541 21.9C112.248 22.4333 111.834 22.8733 111.301 23.22C110.781 23.5667 110.108 23.74 109.281 23.74ZM109.861 21.74C110.594 21.74 111.161 21.5 111.561 21.02C111.974 20.54 112.234 19.9467 112.341 19.24H110.161C109.481 19.24 108.994 19.3667 108.701 19.62C108.408 19.86 108.261 20.16 108.261 20.52C108.261 20.9067 108.408 21.2067 108.701 21.42C108.994 21.6333 109.381 21.74 109.861 21.74ZM117.554 23.5V9.1H120.114V23.5H117.554Z" fill="#7B95B7"/>
</svg>
